<?xml version="1.0" encoding="UTF-8" standalone="no"?>
<svg
   xmlns:dc="http://purl.org/dc/elements/1.1/"
   xmlns:cc="http://creativecommons.org/ns#"
   xmlns:rdf="http://www.w3.org/1999/02/22-rdf-syntax-ns#"
   xmlns:svg="http://www.w3.org/2000/svg"
   xmlns="http://www.w3.org/2000/svg"
   xmlns:sodipodi="http://sodipodi.sourceforge.net/DTD/sodipodi-0.dtd"
   xmlns:inkscape="http://www.inkscape.org/namespaces/inkscape"
   width="200mm"
   height="200mm"
   viewBox="0 0 200.00001 199.99999"
   version="1.1"
   id="svg8"
   inkscape:version="1.0.1 (1.0.1+r73)"
   sodipodi:docname="cycle_diacritic_gesture.svg"
   inkscape:export-filename="/home/ravi/programming/8vim/random_images/Predictive_text_middle_selection.png"
   inkscape:export-xdpi="96"
   inkscape:export-ydpi="96">
  <defs
     id="defs2">
    <inkscape:path-effect
       effect="spiro"
       id="path-effect883"
       is_visible="true"
       lpeversion="1" />
    <inkscape:path-effect
       effect="spiro"
       id="path-effect872"
       is_visible="true"
       lpeversion="1" />
    <inkscape:path-effect
       effect="bspline"
       id="path-effect1720"
       is_visible="true"
       lpeversion="1"
       weight="33.333333"
       steps="2"
       helper_size="0"
       apply_no_weight="true"
       apply_with_weight="true"
       only_selected="false" />
    <inkscape:path-effect
       effect="bspline"
       id="path-effect1589"
       is_visible="true"
       lpeversion="1"
       weight="33.333333"
       steps="2"
       helper_size="0"
       apply_no_weight="true"
       apply_with_weight="true"
       only_selected="false" />
    <marker
       style="overflow:visible"
       id="Arrow1Mend"
       refX="0"
       refY="0"
       orient="auto"
       inkscape:stockid="Arrow1Mend"
       inkscape:isstock="true">
      <path
         transform="matrix(-0.4,0,0,-0.4,-4,0)"
         style="fill:#d72d2d;fill-opacity:1;fill-rule:evenodd;stroke:#d72d2d;stroke-width:1pt;stroke-opacity:1"
         d="M 0,0 5,-5 -12.5,0 5,5 Z"
         id="path934" />
    </marker>
    <marker
       style="overflow:visible"
       id="Arrow1Mstart"
       refX="0"
       refY="0"
       orient="auto"
       inkscape:stockid="Arrow1Mstart"
       inkscape:isstock="true">
      <path
         transform="matrix(0.4,0,0,0.4,4,0)"
         style="fill:#e63e3e;fill-opacity:1;fill-rule:evenodd;stroke:#e63e3e;stroke-width:1pt;stroke-opacity:1"
         d="M 0,0 5,-5 -12.5,0 5,5 Z"
         id="path931" />
    </marker>
    <inkscape:path-effect
       effect="bspline"
       id="path-effect1203"
       is_visible="true"
       lpeversion="1"
       weight="33.333333"
       steps="2"
       helper_size="0"
       apply_no_weight="true"
       apply_with_weight="true"
       only_selected="false" />
    <marker
       style="overflow:visible"
       id="Arrow1Sstart"
       refX="0"
       refY="0"
       orient="auto"
       inkscape:stockid="Arrow1Sstart"
       inkscape:isstock="true">
      <path
         transform="matrix(0.2,0,0,0.2,1.2,0)"
         style="fill:#fefefe;fill-opacity:1;fill-rule:evenodd;stroke:#000000;stroke-width:1pt;stroke-opacity:1"
         d="M 0,0 5,-5 -12.5,0 5,5 Z"
         id="path937" />
    </marker>
  </defs>
  <sodipodi:namedview
     id="base"
     pagecolor="#ffffff"
     bordercolor="#666666"
     borderopacity="1.0"
     inkscape:pageopacity="0.0"
     inkscape:pageshadow="2"
     inkscape:zoom="0.49497475"
     inkscape:cx="476.2032"
     inkscape:cy="222.27562"
     inkscape:document-units="mm"
     inkscape:current-layer="layer1"
     inkscape:document-rotation="0"
     showgrid="false"
     fit-margin-top="0"
     fit-margin-left="0"
     fit-margin-right="0"
     fit-margin-bottom="0"
     showborder="true"
     inkscape:window-width="1200"
     inkscape:window-height="1892"
     inkscape:window-x="0"
     inkscape:window-y="0"
     inkscape:window-maximized="1" />
  <metadata
     id="metadata5">
    <rdf:RDF>
      <cc:Work
         rdf:about="">
        <dc:format>image/svg+xml</dc:format>
        <dc:type
           rdf:resource="http://purl.org/dc/dcmitype/StillImage" />
        <dc:title></dc:title>
      </cc:Work>
    </rdf:RDF>
  </metadata>
  <g
     inkscape:label="Layer 1"
     inkscape:groupmode="layer"
     id="layer1"
     transform="translate(-23.070072,-45.505058)">
    <path
       id="rect876"
       style="fill:#fefefe;fill-opacity:1;stroke:#000000;stroke-width:1;stroke-miterlimit:4;stroke-dasharray:none;stroke-dashoffset:0;stroke-opacity:1;marker-start:url(#Arrow1Sstart)"
       d="m 176.5245,86.443352 h 20.99119 V 205.33632 H 176.5245 Z m -127.900061,0 H 197.5157 V 205.33462 H 48.624439 Z M 166.0685,202.13285 124.41235,165.69201 v 0 m -73.331835,37.6056 39.300221,-38.77036 v 0 M 51.781308,89.475755 89.679942,129.32951 m 35.663708,-0.70549 39.79355,-38.442769 v 0 m -32.61535,56.476289 a 24.536322,24.536322 0 0 1 -24.53632,24.53632 24.536322,24.536322 0 0 1 -24.536323,-24.53632 24.536322,24.536322 0 0 1 24.536323,-24.53632 24.536322,24.536322 0 0 1 24.53632,24.53632 z" />
    <path
       style="fill:#f2dada;fill-opacity:1;stroke:#000000;stroke-width:1;stroke-miterlimit:4;stroke-dasharray:none;stroke-opacity:1"
       d="M 97.515692,71.443352 H 147.5157 v 15 H 97.515692 Z"
       id="path1697" />
    <path
       style="fill:#f2dada;fill-opacity:1;stroke:#000000;stroke-width:1;stroke-miterlimit:4;stroke-dasharray:none;stroke-opacity:1"
       d="m 47.515688,71.443352 h 50 v 15 h -50 z"
       id="path1695" />
    <path
       style="fill:#ffa7a7;fill-opacity:1;stroke:#000000;stroke-width:1;stroke-miterlimit:4;stroke-dasharray:none;stroke-opacity:1"
       d="m 147.5157,71.443352 h 50 v 15 h -50 z"
       id="rect883-6" />
    <path
       style="fill:none;stroke:#d72d2d;stroke-width:1.00000003;stroke-linecap:butt;stroke-linejoin:miter;stroke-opacity:1;stroke-miterlimit:4;stroke-dasharray:6.00000017, 1.00000003000000004;stroke-dashoffset:0;marker-start:url(#Arrow1Mend);marker-mid:url(#Arrow1Mend);marker-end:url(#Arrow1Mend);paint-order:normal"
       d="m 102.18343,147.50303 c -1.35912,13.50294 -2.960517,26.9815 -4.803164,40.42699 -0.151895,1.10835 -0.305463,2.23452 -0.141661,3.34118 0.0819,0.55333 0.244401,1.098 0.51409,1.58805 0.26969,0.49005 0.649292,0.9244 1.120668,1.22554 0.612649,0.39139 1.363957,0.54375 2.087787,0.476 0.72384,-0.0678 1.4196,-0.34792 2.02155,-0.75556 1.20391,-0.81529 2.0086,-2.09753 2.64284,-3.4059 2.71727,-5.60547 2.85557,-12.10647 2.30796,-18.31171 -0.54761,-6.20524 -1.72693,-12.38918 -1.44739,-18.61226 0.0242,-0.53931 0.0594,-1.07814 0.10554,-1.61602"
       id="path881"
       inkscape:path-effect="#path-effect883"
       inkscape:original-d="m 102.18343,147.50303 c -1.60079,13.47593 -3.201845,26.95159 -4.803164,40.42699 -1.601322,13.4754 0.995662,4.10345 1.493097,6.15477 0.497435,2.05133 4.501717,-2.45671 6.752177,-3.68546 2.25046,-1.22875 0.57398,-24.61572 0.86057,-36.92397 0.28659,-12.30826 0.0706,-1.07708 0.10554,-1.61602" />
  </g>
</svg>
