<?xml version="1.0" encoding="UTF-8" standalone="no"?>
<svg
   xmlns:dc="http://purl.org/dc/elements/1.1/"
   xmlns:cc="http://creativecommons.org/ns#"
   xmlns:rdf="http://www.w3.org/1999/02/22-rdf-syntax-ns#"
   xmlns:svg="http://www.w3.org/2000/svg"
   xmlns="http://www.w3.org/2000/svg"
   xmlns:sodipodi="http://sodipodi.sourceforge.net/DTD/sodipodi-0.dtd"
   xmlns:inkscape="http://www.inkscape.org/namespaces/inkscape"
   width="200mm"
   height="200mm"
   viewBox="0 0 200.00001 199.99999"
   version="1.1"
   id="svg8"
   inkscape:version="1.0.1 (1.0.1+r73)"
   sodipodi:docname="Loop_over_last_demarcating_line.svg"
   inkscape:export-filename="/home/ravi/programming/8vim/random_images/Predictive_text_middle_selection.png"
   inkscape:export-xdpi="96"
   inkscape:export-ydpi="96">
  <defs
     id="defs2">
    <inkscape:path-effect
       effect="spiro"
       id="path-effect872"
       is_visible="true"
       lpeversion="1" />
    <inkscape:path-effect
       effect="bspline"
       id="path-effect1720"
       is_visible="true"
       lpeversion="1"
       weight="33.333333"
       steps="2"
       helper_size="0"
       apply_no_weight="true"
       apply_with_weight="true"
       only_selected="false" />
    <inkscape:path-effect
       effect="bspline"
       id="path-effect1589"
       is_visible="true"
       lpeversion="1"
       weight="33.333333"
       steps="2"
       helper_size="0"
       apply_no_weight="true"
       apply_with_weight="true"
       only_selected="false" />
    <marker
       style="overflow:visible"
       id="Arrow1Mend"
       refX="0"
       refY="0"
       orient="auto"
       inkscape:stockid="Arrow1Mend"
       inkscape:isstock="true">
      <path
         transform="matrix(-0.4,0,0,-0.4,-4,0)"
         style="fill:#da3030;fill-opacity:1;fill-rule:evenodd;stroke:#da3030;stroke-width:1pt;stroke-opacity:1"
         d="M 0,0 5,-5 -12.5,0 5,5 Z"
         id="path934" />
    </marker>
    <marker
       style="overflow:visible"
       id="Arrow1Mstart"
       refX="0"
       refY="0"
       orient="auto"
       inkscape:stockid="Arrow1Mstart"
       inkscape:isstock="true">
      <path
         transform="matrix(0.4,0,0,0.4,4,0)"
         style="fill:#e63e3e;fill-opacity:1;fill-rule:evenodd;stroke:#e63e3e;stroke-width:1pt;stroke-opacity:1"
         d="M 0,0 5,-5 -12.5,0 5,5 Z"
         id="path931" />
    </marker>
    <inkscape:path-effect
       effect="bspline"
       id="path-effect1203"
       is_visible="true"
       lpeversion="1"
       weight="33.333333"
       steps="2"
       helper_size="0"
       apply_no_weight="true"
       apply_with_weight="true"
       only_selected="false" />
    <marker
       style="overflow:visible"
       id="Arrow1Sstart"
       refX="0"
       refY="0"
       orient="auto"
       inkscape:stockid="Arrow1Sstart"
       inkscape:isstock="true">
      <path
         transform="matrix(0.2,0,0,0.2,1.2,0)"
         style="fill:#fefefe;fill-opacity:1;fill-rule:evenodd;stroke:#000000;stroke-width:1pt;stroke-opacity:1"
         d="M 0,0 5,-5 -12.5,0 5,5 Z"
         id="path937" />
    </marker>
  </defs>
  <sodipodi:namedview
     id="base"
     pagecolor="#ffffff"
     bordercolor="#666666"
     borderopacity="1.0"
     inkscape:pageopacity="0.0"
     inkscape:pageshadow="2"
     inkscape:zoom="0.49497475"
     inkscape:cx="476.2032"
     inkscape:cy="229.34669"
     inkscape:document-units="mm"
     inkscape:current-layer="layer1"
     inkscape:document-rotation="0"
     showgrid="false"
     fit-margin-top="0"
     fit-margin-left="0"
     fit-margin-right="0"
     fit-margin-bottom="0"
     showborder="true"
     inkscape:window-width="1366"
     inkscape:window-height="713"
     inkscape:window-x="1200"
     inkscape:window-y="1102"
     inkscape:window-maximized="1" />
  <metadata
     id="metadata5">
    <rdf:RDF>
      <cc:Work
         rdf:about="">
        <dc:format>image/svg+xml</dc:format>
        <dc:type
           rdf:resource="http://purl.org/dc/dcmitype/StillImage" />
        <dc:title></dc:title>
      </cc:Work>
    </rdf:RDF>
  </metadata>
  <g
     inkscape:label="Layer 1"
     inkscape:groupmode="layer"
     id="layer1"
     transform="translate(-23.070072,-45.505058)">
    <path
       id="rect876"
       style="fill:#fefefe;fill-opacity:1;stroke:#000000;stroke-width:1;stroke-miterlimit:4;stroke-dasharray:none;stroke-dashoffset:0;stroke-opacity:1;marker-start:url(#Arrow1Sstart)"
       d="m 176.5245,86.443352 h 20.99119 V 205.33632 H 176.5245 Z m -127.900061,0 H 197.5157 V 205.33462 H 48.624439 Z M 166.0685,202.13285 124.41235,165.69201 v 0 m -73.331835,37.6056 39.300221,-38.77036 v 0 M 51.781308,89.475755 89.679942,129.32951 m 35.663708,-0.70549 39.79355,-38.442769 v 0 m -32.61535,56.476289 a 24.536322,24.536322 0 0 1 -24.53632,24.53632 24.536322,24.536322 0 0 1 -24.536323,-24.53632 24.536322,24.536322 0 0 1 24.536323,-24.53632 24.536322,24.536322 0 0 1 24.53632,24.53632 z" />
    <path
       style="fill:#f2dada;fill-opacity:1;stroke:#000000;stroke-width:1;stroke-miterlimit:4;stroke-dasharray:none;stroke-opacity:1"
       d="M 97.515692,71.443352 H 147.5157 v 15 H 97.515692 Z"
       id="path1697" />
    <path
       style="fill:#f2dada;fill-opacity:1;stroke:#000000;stroke-width:1;stroke-miterlimit:4;stroke-dasharray:none;stroke-opacity:1"
       d="m 47.515688,71.443352 h 50 v 15 h -50 z"
       id="path1695" />
    <path
       style="fill:#ffa7a7;fill-opacity:1;stroke:#000000;stroke-width:1;stroke-miterlimit:4;stroke-dasharray:none;stroke-opacity:1"
       d="m 147.5157,71.443352 h 50 v 15 h -50 z"
       id="rect883-6" />
    <path
       style="fill:none;stroke:#da3030;stroke-width:1.00000003;stroke-linecap:butt;stroke-linejoin:miter;stroke-opacity:1;stroke-miterlimit:4;stroke-dasharray:6.00000017, 1.00000003000000004;stroke-dashoffset:0;marker-start:url(#Arrow1Mend);marker-mid:url(#Arrow1Mend);marker-end:url(#Arrow1Mend)"
       d="m 107.19139,160.16995 c 6.91434,1.97925 14.35814,2.07442 21.32083,0.2726 6.96268,-1.80182 13.4259,-5.49589 18.51218,-10.58069 6.54201,-6.5401 10.78158,-15.5941 10.58576,-24.84247 -0.0979,-4.62419 -1.29555,-9.23754 -3.57904,-13.25978 -2.28349,-4.02224 -5.66095,-7.43697 -9.72424,-9.64659 -3.55772,-1.93469 -7.67653,-2.936214 -11.70078,-2.482473 -4.02424,0.453743 -7.92282,2.433653 -10.39098,5.644353 -1.71723,2.23386 -2.70867,5.01309 -2.81318,7.82878 -0.1045,2.81568 0.67536,5.65493 2.18644,8.03309 1.51109,2.37816 3.74473,4.28702 6.32119,5.42757 2.57646,1.14056 5.48507,1.51111 8.26843,1.07305 2.98398,-0.46964 5.80744,-1.86364 8.03543,-3.90343 2.228,-2.03979 3.85863,-4.71316 4.71044,-7.61128 1.18618,-4.03572 0.84238,-8.48275 -0.84842,-12.33441 -1.6908,-3.851661 -4.69906,-7.091566 -8.36075,-9.161857 -3.66169,-2.070292 -7.95214,-2.976875 -12.14797,-2.678389 -4.19584,0.298486 -8.28586,1.786862 -11.75838,4.160824 -3.49984,2.39264 -6.36402,5.658492 -8.50193,9.319502 -2.13791,3.66101 -3.56396,7.71199 -4.44355,11.85927 -1.75917,8.29456 -1.35167,16.87871 -0.83443,25.34198 0.0222,0.36292 0.0446,0.72582 0.0671,1.08872"
       id="path870"
       inkscape:path-effect="#path-effect872"
       inkscape:original-d="m 107.19139,160.16995 c 13.27794,-3.43577 26.55561,-6.87179 39.83301,-10.30809 13.27741,-3.43629 -1.81141,-31.8323 -2.71752,-47.74884 -0.9061,-15.916551 -14.72757,2.10819 -22.09176,3.16188 -7.36418,1.0537 9.30885,14.90859 13.96288,22.36249 4.65403,7.45389 8.49751,-7.67621 12.74587,-11.51471 4.24836,-3.8385 -22.07674,-13.34229 -33.11552,-20.013832 -11.03877,-6.67154 -9.18634,31.014102 -13.77991,46.520752 -4.593564,15.50666 0.045,0.72608 0.0671,1.08872" />
  </g>
</svg>
