<?xml version="1.0" encoding="UTF-8" standalone="no"?>
<svg
   xmlns:dc="http://purl.org/dc/elements/1.1/"
   xmlns:cc="http://creativecommons.org/ns#"
   xmlns:rdf="http://www.w3.org/1999/02/22-rdf-syntax-ns#"
   xmlns:svg="http://www.w3.org/2000/svg"
   xmlns="http://www.w3.org/2000/svg"
   xmlns:sodipodi="http://sodipodi.sourceforge.net/DTD/sodipodi-0.dtd"
   xmlns:inkscape="http://www.inkscape.org/namespaces/inkscape"
   width="200mm"
   height="200mm"
   viewBox="0 0 200.00001 199.99999"
   version="1.1"
   id="svg8"
   inkscape:version="1.0.1 (1.0.1+r73)"
   sodipodi:docname="Predictive_text_middle_selection.svg">
  <defs
     id="defs2">
    <inkscape:path-effect
       effect="bspline"
       id="path-effect1589"
       is_visible="true"
       lpeversion="1"
       weight="33.333333"
       steps="2"
       helper_size="0"
       apply_no_weight="true"
       apply_with_weight="true"
       only_selected="false" />
    <marker
       style="overflow:visible"
       id="Arrow1Mend"
       refX="0"
       refY="0"
       orient="auto"
       inkscape:stockid="Arrow1Mend"
       inkscape:isstock="true">
      <path
         transform="matrix(-0.4,0,0,-0.4,-4,0)"
         style="fill:#e32929;fill-opacity:1;fill-rule:evenodd;stroke:#e32929;stroke-width:1pt;stroke-opacity:1"
         d="M 0,0 5,-5 -12.5,0 5,5 Z"
         id="path934" />
    </marker>
    <marker
       style="overflow:visible"
       id="Arrow1Mstart"
       refX="0"
       refY="0"
       orient="auto"
       inkscape:stockid="Arrow1Mstart"
       inkscape:isstock="true">
      <path
         transform="matrix(0.4,0,0,0.4,4,0)"
         style="fill:#d12121;fill-opacity:1;fill-rule:evenodd;stroke:#d12121;stroke-width:1pt;stroke-opacity:1"
         d="M 0,0 5,-5 -12.5,0 5,5 Z"
         id="path931" />
    </marker>
    <inkscape:path-effect
       effect="bspline"
       id="path-effect1203"
       is_visible="true"
       lpeversion="1"
       weight="33.333333"
       steps="2"
       helper_size="0"
       apply_no_weight="true"
       apply_with_weight="true"
       only_selected="false" />
    <marker
       style="overflow:visible"
       id="Arrow1Sstart"
       refX="0"
       refY="0"
       orient="auto"
       inkscape:stockid="Arrow1Sstart"
       inkscape:isstock="true">
      <path
         transform="matrix(0.2,0,0,0.2,1.2,0)"
         style="fill:#fefefe;fill-opacity:1;fill-rule:evenodd;stroke:#000000;stroke-width:1pt;stroke-opacity:1"
         d="M 0,0 5,-5 -12.5,0 5,5 Z"
         id="path937" />
    </marker>
  </defs>
  <sodipodi:namedview
     id="base"
     pagecolor="#ffffff"
     bordercolor="#666666"
     borderopacity="1.0"
     inkscape:pageopacity="0.0"
     inkscape:pageshadow="2"
     inkscape:zoom="0.49497475"
     inkscape:cx="-96.698451"
     inkscape:cy="236.41776"
     inkscape:document-units="mm"
     inkscape:current-layer="layer1"
     inkscape:document-rotation="0"
     showgrid="false"
     fit-margin-top="0"
     fit-margin-left="0"
     fit-margin-right="0"
     fit-margin-bottom="0"
     showborder="true"
     inkscape:window-width="1366"
     inkscape:window-height="713"
     inkscape:window-x="1200"
     inkscape:window-y="1102"
     inkscape:window-maximized="1" />
  <metadata
     id="metadata5">
    <rdf:RDF>
      <cc:Work
         rdf:about="">
        <dc:format>image/svg+xml</dc:format>
        <dc:type
           rdf:resource="http://purl.org/dc/dcmitype/StillImage" />
        <dc:title></dc:title>
      </cc:Work>
    </rdf:RDF>
  </metadata>
  <g
     inkscape:label="Layer 1"
     inkscape:groupmode="layer"
     id="layer1"
     transform="translate(-23.070072,-45.505058)">
    <path
       id="rect876"
       style="fill:#fefefe;fill-opacity:1;stroke:#000000;stroke-width:1;stroke-miterlimit:4;stroke-dasharray:none;stroke-dashoffset:0;stroke-opacity:1;marker-start:url(#Arrow1Sstart)"
       d="m 176.5245,86.443352 h 20.99119 V 205.33632 H 176.5245 Z m -127.900061,0 H 197.5157 V 205.33462 H 48.624439 Z M 166.0685,202.13285 124.41235,165.69201 v 0 m -73.331835,37.6056 39.300221,-38.77036 v 0 M 51.781308,89.475755 89.679942,129.32951 m 35.663708,-0.70549 39.79355,-38.442769 v 0 m -32.61535,56.476289 a 24.536322,24.536322 0 0 1 -24.53632,24.53632 24.536322,24.536322 0 0 1 -24.536323,-24.53632 24.536322,24.536322 0 0 1 24.536323,-24.53632 24.536322,24.536322 0 0 1 24.53632,24.53632 z" />
    <path
       style="fill:#ffa7a7;fill-opacity:1;stroke:#000000;stroke-width:1;stroke-miterlimit:4;stroke-dasharray:none;stroke-opacity:1"
       d="M 97.515692,71.443352 H 147.5157 v 15 H 97.515692 Z"
       id="path1697" />
    <path
       style="fill:#f2dada;fill-opacity:1;stroke:#000000;stroke-width:1;stroke-miterlimit:4;stroke-dasharray:none;stroke-opacity:1"
       d="m 47.515688,71.443352 h 50 v 15 h -50 z"
       id="path1695" />
    <path
       style="fill:#f2dada;fill-opacity:1;stroke:#000000;stroke-width:1;stroke-miterlimit:4;stroke-dasharray:none;stroke-opacity:1"
       d="m 147.5157,71.443352 h 50 v 15 h -50 z"
       id="rect883-6" />
    <path
       style="fill:none;stroke:#e32929;stroke-width:1;stroke-linecap:butt;stroke-linejoin:miter;stroke-miterlimit:4;stroke-dasharray:none;stroke-opacity:1;marker-start:url(#Arrow1Mend);marker-mid:url(#Arrow1Mend)"
       d="m 107.63215,147.47525 c -3.05623,-15.87637 -6.11252,-31.75306 -6.47192,-40.43853 -0.35941,-8.68547 1.97795,-10.179319 3.76474,-9.620016 1.78679,0.559302 3.02282,3.171326 3.57725,11.317606 0.55443,8.14629 0.42739,21.82629 0.31238,28.75509 -0.11501,6.9288 -0.21793,7.1063 -0.3208,7.28372"
       id="path1587"
       inkscape:path-effect="#path-effect1589"
       inkscape:original-d="m 107.63215,147.47525 c -3.05602,-15.87641 -6.11231,-31.7531 -9.168861,-47.63004 2.337731,-1.49365 4.675091,-2.9875 7.012241,-4.48165 1.23635,2.61239 2.47238,5.22441 3.70817,7.83623 -0.12679,13.68081 -0.25382,27.36081 -0.38113,41.04082 -0.10267,0.17777 -0.20559,0.35527 -0.30877,0.53251" />
  </g>
</svg>
