<?xml version="1.0" encoding="UTF-8"?>
<svg class="figure" version="1.1" viewBox="0 0 80 80" xmlns="http://www.w3.org/2000/svg" x="0px" y="0px"
	 width="561.139px" height="561.14px" viewBox="0 0 561.139 561.14" style="enable-background:new 0 0 561.139 561.14;"
	 xml:space="preserve">
 <g class="doodle-path" transform="translate(0)">
  <path d="m38.3 35.4 0.315 0.409 0.297 0.434 0.279 0.458 0.262 0.48 0.244 0.501 0.227 0.522 0.21 0.541 0.194 0.559 0.178 0.576 0.163 0.592 0.148 0.607 0.133 0.622 0.119 0.636 0.105 0.649 0.0924 0.661 0.0799 0.673 0.0679 0.684 0.0564 0.695 0.0454 0.705 0.0349 0.715 0.0249 0.724 0.0154 0.732 0.00633 0.741-9.79e-4 0.749-0.00637 0.757-0.00957 0.765-0.0102 0.772-0.00783 0.78-0.00166 0.787 0.00925 0.793 0.0262 0.796 0.0503 0.796 0.082 0.788 0.12 0.77 0.159 0.739 0.197 0.699 0.232 0.653 0.263 0.603 0.291 0.551 0.315 0.498 0.337 0.446 0.356 0.394 0.373 0.344 0.389 0.294 0.403 0.246 0.415 0.199 0.425 0.153 0.434 0.11 0.442 0.0677 0.449 0.0276 0.455-0.0107 0.46-0.0471 0.464-0.0817 0.468-0.115 0.471-0.146 0.475-0.176 0.477-0.204 0.48-0.231 0.483-0.256 0.485-0.28 0.487-0.303 0.49-0.325 0.492-0.346 0.493-0.367 0.492-0.388 0.49-0.41 0.485-0.431 0.48-0.451 0.472-0.472 0.463-0.492 0.453-0.512 0.441-0.531 0.428-0.55 0.413-0.568 0.398-0.586 0.381-0.603 0.364-0.619 0.345-0.634 0.326-0.648 0.306-0.662 0.286-0.675 0.265-0.687 0.243-0.698 0.222-0.708 0.2-0.717 0.177-0.726 0.155-0.734 0.133-0.741 0.111-0.747 0.0886-0.753 0.0666-0.758 0.0447-0.762 0.0232-0.766 0.00186-0.769-0.0192-0.771-0.0398-0.773-0.0602-0.775-0.0801-0.776-0.0997-0.776-0.119-0.777-0.138-0.777-0.156-0.776-0.174-0.776-0.192-0.775-0.211-0.772-0.23-0.769-0.25-0.765-0.27-0.76-0.29-0.754-0.311-0.746-0.332-0.738-0.353-0.728-0.375-0.717-0.396-0.705-0.417-0.692-0.439-0.677-0.46-0.661-0.48-0.644-0.501-0.626-0.521-0.607-0.54-0.587-0.559-0.566-0.578-0.544-0.595-0.521-0.612-0.497-0.628-0.473-0.643-0.448-0.658-0.422-0.671-0.397-0.684-0.37-0.696-0.344-0.706-0.318-0.716-0.291-0.726-0.265-0.734-0.238-0.741-0.212-0.748-0.186-0.754-0.16-0.759-0.135-0.764-0.109-0.768-0.0847-0.771-0.0603-0.774-0.0364-0.776-0.013-0.777 0.0101-0.779 0.0329-0.779 0.0554-0.779 0.0778-0.779 0.0999-0.777 0.122-0.775 0.144-0.773 0.166-0.77 0.188-0.765 0.21-0.76 0.233-0.754 0.256-0.747 0.279-0.738 0.302-0.728 0.326-0.716 0.35-0.703 0.375-0.687 0.4-0.668 0.425-0.647 0.45-0.623 0.475-0.595 0.5-0.564 0.523-0.529 0.545-0.491 0.565-0.449 0.583-0.405 0.598-0.359 0.609-0.31 0.617-0.261 0.622-0.211 0.624-0.162 0.623-0.112 0.619-0.0631 0.613-0.0151 0.604 0.0317 0.593 0.0771 0.58 0.119 0.559 0.157 0.55 0.192 0.541 0.225 0.532 0.256 0.524 0.285 0.515 0.313 0.508 0.339 0.501 0.363 0.494 0.385 0.489 0.406 0.484 0.424 0.48 0.441 0.477 0.453 0.475 0.455 0.471 0.434 0.462 0.391 0.475 0.327 0.458 0.265 0.426 0.205 0.389 0.15 0.349 0.0997 0.305 0.056 0.261 0.0201 0.217-0.00762 0.178-0.0295 0.149-0.0507 0.131-0.0764 0.123-0.109 0.119-0.146 0.115-0.186 0.109-0.225 0.1-0.263 0.0891-0.298 0.0766-0.331 0.0636-0.362 0.0503-0.391 0.0373-0.418 0.0246-0.443 0.0125-0.466 9.38e-4 -0.489-0.00995-0.511-0.0203-0.533-0.0289-0.554-0.0355-0.575-0.04-1.21-0.0822-0.636-0.035-0.656-0.0244-0.675-7e-3 -0.691 0.0189-0.698 0.0541-0.691 0.0963-0.671 0.141-0.639 0.186-0.6 0.227-0.556 0.266-0.51 0.301-0.462 0.334-0.413 0.364-0.362 0.391-0.311 0.415-0.259 0.436-0.208 0.453-0.157 0.466-0.109 0.476-0.0628 0.483-0.0194 0.488 0.0211 0.491 0.0589 0.493 0.1 0.493 0.133 0.494 0.164 0.494 0.192 0.495 0.219 0.495 0.245 0.496 0.269 0.497 0.292 0.498 0.314 0.5 0.334 0.501 0.354 0.502 0.373 0.505 0.393 0.506 0.412 0.507 0.431 0.506 0.45 0.504 0.469 0.501 0.488 0.496 0.507 0.49 0.526 0.482 0.545 0.473 0.564 0.461 0.582 0.448 0.6 0.433 0.618 0.416 0.635 0.397 0.651 0.375 0.667 0.351 0.681 0.325 0.694 0.296 0.705 0.265 0.714 0.232 0.721 0.197 0.726 0.16 0.728 0.123 0.728 0.0839 0.725 0.0445 0.72 0.00485 0.712-0.0348 0.703-0.0742 0.691-0.113 0.677-0.151 0.662-0.188 0.645-0.224 0.627-0.259 0.608-0.292 0.588-0.324 0.567-0.355 0.546-0.384 0.524-0.412 0.499-0.435 0.482-0.457 0.467-0.478 0.454-0.498 0.443-0.516 0.434-0.532 0.426-0.547 0.42-0.561 0.416-0.574 0.414-0.585 0.413-0.596 0.413-0.604 0.835-1.23 0.424-0.623 0.43-0.627 0.437-0.629 0.445-0.63 0.455-0.63 0.465-0.628 0.476-0.625 0.487-0.62 0.5-0.614 0.512-0.607 0.525-0.599 0.539-0.589 0.552-0.579 0.566-0.567 0.579-0.554 0.593-0.54 0.606-0.526 0.619-0.51 0.632-0.495 0.644-0.478 0.656-0.461 0.668-0.444 0.679-0.426 0.69-0.408 0.7-0.39 0.71-0.371 0.72-0.353 0.728-0.334 0.735-0.313 0.74-0.289 0.744-0.261 0.745-0.23 0.743-0.194 0.737-0.155 0.725-0.113 0.706-0.0684 0.682-0.0236 0.652 0.0203 0.617 0.062 0.579 0.101 0.538 0.137 0.496 0.169 0.453 0.199 0.41 0.225 0.368 0.249 0.328 0.271 0.289 0.291 0.251 0.31 0.215 0.328 0.18 0.345 0.146 0.363 0.113 0.379 0.0813 0.395 0.0497 0.41 0.0187 0.425-0.0116 0.438-0.0412 0.45-0.0699 0.462-0.0978 0.472-0.125 0.482-0.151 0.49-0.176 0.498-0.2 0.505-0.223 0.512-0.245 0.518-0.267 0.523-0.287 0.528-0.306 0.532-0.325 0.534-0.345 0.535-0.364 0.535-0.383 0.533-0.403 0.529-0.422 0.524-0.441 0.518-0.46 0.511-0.479 0.502-0.497 0.492-0.516 0.48-0.533 0.468-0.55 0.454-0.567 0.439-0.583 0.424-0.599 0.407-0.614 0.39-0.628 0.372-0.642 0.353-0.655 0.334-0.667 0.314-0.679 0.294-0.69 0.273-0.7 0.252-0.709 0.231-0.718 0.21-0.726 0.188-0.733 0.166-0.74 0.145-0.746 0.123-0.751 0.102-0.756 0.0806-0.76 0.0595-0.764 0.0386-0.767 0.018-0.77-0.00243-0.772-0.0225-0.774-0.0423-0.775-0.0617-0.776-0.0808-0.776-0.0997-0.776-0.118-0.776-0.137-0.775-0.155-0.773-0.173-0.771-0.191-0.769-0.209-0.765-0.228-0.761-0.246-0.757-0.264-0.751-0.283-0.745-0.301-0.737-0.32-0.729-0.339-0.719-0.359-0.708-0.378-0.695-0.398-0.681-0.419-0.664-0.439-0.645-0.46-0.624-0.48-0.6-0.5-0.573-0.52-0.542-0.539-0.509-0.556-0.473-0.572-0.433-0.585-0.391-0.596-0.348-0.603-0.302-0.608-0.256-0.61-0.21-0.608-0.163-0.605-0.117-0.598-0.0723-0.589-0.0283-0.579 0.0145-0.567 0.0559-0.553 0.0961-0.539 0.133-0.529 0.169-0.517 0.204-0.505 0.237-0.492 0.269-0.479 0.3-0.465 0.329-0.452 0.358-0.437 0.385-0.423 0.411-0.409 0.435-0.394 0.459-0.379 0.482-0.365 0.503-0.35 0.523-0.336 0.543-0.322 0.561-0.308 0.579-0.294 0.596-0.28 0.612-0.267 0.627-0.253 0.641-0.24 0.655-0.228 0.668-0.216 0.68-0.203 0.691-0.192 0.703-0.18 0.713-0.169 0.723-0.159 0.732-0.148 0.741-0.138 0.75-0.128 0.758-0.119 0.766-0.11 0.773-0.101 0.78-0.0921 0.786-0.0839 0.792-0.076 0.798-0.0684-0.00189-0.0262-0.799 0.0621-0.793 0.0697-0.787 0.0777-0.781 0.0859-0.774 0.0945-0.767 0.103-0.76 0.113-0.752 0.122-0.744 0.132-0.735 0.142-0.726 0.153-0.716 0.164-0.706 0.175-0.695 0.186-0.684 0.198-0.672 0.21-0.659 0.223-0.646 0.236-0.632 0.249-0.618 0.262-0.602 0.276-0.586 0.29-0.569 0.304-0.551 0.319-0.532 0.334-0.512 0.349-0.491 0.364-0.47 0.38-0.447 0.395-0.422 0.411-0.397 0.426-0.37 0.442-0.342 0.458-0.313 0.473-0.282 0.488-0.25 0.503-0.216 0.518-0.181 0.531-0.145 0.545-0.106 0.557-0.0652 0.573-0.0223 0.588 0.0221 0.601 0.0678 0.612 0.115 0.621 0.162 0.627 0.21 0.631 0.258 0.632 0.305 0.63 0.352 0.625 0.397 0.616 0.439 0.605 0.479 0.591 0.516 0.574 0.55 0.556 0.581 0.536 0.608 0.516 0.632 0.495 0.653 0.473 0.672 0.452 0.689 0.431 0.703 0.41 0.716 0.39 0.727 0.37 0.737 0.35 0.745 0.33 0.753 0.311 0.759 0.292 0.765 0.274 0.77 0.255 0.774 0.237 0.777 0.219 0.78 0.2 0.783 0.182 0.784 0.164 0.786 0.145 0.787 0.126 0.787 0.108 0.787 0.0886 0.787 0.0692 0.786 0.0495 0.785 0.0294 0.784 0.00901 0.782-0.0118 0.779-0.0328 0.776-0.0542 0.772-0.0758 0.768-0.0976 0.763-0.12 0.758-0.142 0.752-0.164 0.745-0.186 0.737-0.208 0.729-0.23 0.72-0.252 0.71-0.274 0.7-0.295 0.688-0.317 0.676-0.337 0.663-0.357 0.65-0.377 0.635-0.396 0.62-0.414 0.604-0.431 0.588-0.447 0.571-0.462 0.553-0.476 0.535-0.49 0.517-0.501 0.498-0.512 0.479-0.521 0.46-0.529 0.44-0.536 0.42-0.541 0.4-0.545 0.381-0.547 0.361-0.548 0.341-0.547 0.321-0.545 0.302-0.542 0.282-0.539 0.261-0.535 0.239-0.532 0.217-0.528 0.193-0.524 0.167-0.52 0.141-0.515 0.113-0.51 0.0843-0.504 0.0537-0.498 0.0216-0.492-0.0124-0.484-0.0481-0.476-0.0857-0.466-0.125-0.455-0.166-0.441-0.209-0.426-0.253-0.408-0.298-0.387-0.344-0.364-0.389-0.337-0.435-0.308-0.48-0.276-0.524-0.242-0.567-0.205-0.609-0.165-0.649-0.123-0.686-0.0782-0.718-0.0314-0.746 0.017-0.767 0.0657-0.782 0.113-0.79 0.158-0.791 0.199-0.789 0.235-0.783 0.267-0.775 0.295-0.766 0.319-0.756 0.34-0.746 0.359-0.737 0.378-0.727 0.397-0.717 0.416-0.706 0.435-0.695 0.453-0.683 0.471-0.67 0.489-0.658 0.506-0.644 0.523-0.631 0.539-0.617 0.553-0.603 0.567-0.589 0.58-0.574 0.592-0.56 0.603-0.545 0.612-0.531 0.62-0.518 0.626-0.504 0.631-0.492 0.635-0.479 0.637-0.468 0.637-0.457 0.636-0.448 0.633-0.439 0.629-0.857 1.24-0.42 0.608-0.416 0.597-0.414 0.586-0.412 0.573-0.413 0.558-0.414 0.542-0.417 0.525-0.421 0.506-0.427 0.486-0.434 0.465-0.442 0.443-0.452 0.419-0.463 0.394-0.477 0.365-0.495 0.339-0.512 0.311-0.529 0.283-0.545 0.253-0.561 0.223-0.576 0.192-0.591 0.16-0.604 0.127-0.616 0.0927-0.627 0.0582-0.637 0.0231-0.644-0.0123-0.65-0.0478-0.654-0.0833-0.656-0.118-0.656-0.153-0.653-0.186-0.649-0.219-0.643-0.249-0.635-0.279-0.625-0.306-0.614-0.331-0.601-0.354-0.587-0.375-0.573-0.394-0.558-0.411-0.542-0.426-0.526-0.439-0.509-0.45-0.492-0.46-0.475-0.467-0.457-0.474-0.439-0.478-0.421-0.481-0.403-0.483-0.385-0.484-0.366-0.483-0.347-0.481-0.328-0.477-0.307-0.472-0.285-0.467-0.262-0.461-0.238-0.454-0.213-0.446-0.186-0.438-0.159-0.429-0.131-0.419-0.102-0.408-0.0718-0.396-0.0478-0.382-0.0173-0.369 0.0135-0.355 0.0445-0.342 0.0759-0.328 0.108-0.316 0.141-0.304 0.176-0.293 0.214-0.283 0.254-0.272 0.297-0.261 0.343-0.247 0.39-0.23 0.437-0.209 0.483-0.184 0.525-0.154 0.561-0.12 0.589-0.0847 0.608-0.0504 0.618-0.0212 0.62 0.00137 0.618 0.0174 0.611 0.0277 0.601 0.0333 1.17 0.0689 0.562 0.0297 0.548 0.0233 0.532 0.0148 0.516 0.00432 0.498-0.00714 0.48-0.0196 0.46-0.0331 0.441-0.0478 0.42-0.0639 0.4-0.0818 0.379-0.102 0.357-0.124 0.335-0.15 0.312-0.181 0.285-0.216 0.253-0.256 0.212-0.299 0.16-0.339 0.1-0.372 0.0365-0.396-0.0261-0.413-0.0854-0.427-0.142-0.442-0.198-0.459-0.256-0.48-0.315-0.502-0.379-0.523-0.447-0.538-0.494-0.52-0.473-0.481-0.452-0.465-0.432-0.458-0.411-0.456-0.389-0.455-0.366-0.456-0.342-0.457-0.317-0.459-0.29-0.462-0.263-0.464-0.234-0.467-0.204-0.47-0.172-0.474-0.14-0.477-0.106-0.481-0.0675-0.489-0.0294-0.502 0.0103-0.514 0.0514-0.525 0.0939-0.535 0.138-0.543 0.182-0.548 0.228-0.551 0.273-0.551 0.318-0.548 0.363-0.542 0.406-0.533 0.446-0.521 0.484-0.506 0.52-0.489 0.552-0.47 0.581-0.449 0.606-0.428 0.629-0.406 0.649-0.384 0.666-0.361 0.681-0.339 0.695-0.317 0.706-0.295 0.715-0.273 0.724-0.251 0.73-0.23 0.736-0.208 0.741-0.187 0.745-0.166 0.748-0.145 0.75-0.124 0.751-0.102 0.752-0.0809 0.752-0.0593 0.751-0.0376 0.75-0.0156 0.748 0.00673 0.746 0.0294 0.743 0.0524 0.74 0.0758 0.735 0.0997 0.731 0.124 0.726 0.148 0.72 0.173 0.713 0.198 0.706 0.223 0.698 0.249 0.69 0.274 0.68 0.3 0.67 0.325 0.659 0.351 0.647 0.376 0.635 0.401 0.622 0.426 0.607 0.45 0.592 0.474 0.577 0.497 0.56 0.52 0.543 0.542 0.526 0.563 0.507 0.583 0.489 0.602 0.469 0.62 0.45 0.637 0.43 0.653 0.41 0.668 0.39 0.682 0.37 0.695 0.349 0.706 0.329 0.716 0.309 0.726 0.289 0.734 0.269 0.74 0.25 0.746 0.231 0.751 0.212 0.755 0.194 0.758 0.176 0.76 0.159 0.76 0.141 0.761 0.122 0.761 0.104 0.76 0.0845 0.76 0.0649 0.758 0.045 0.757 0.0248 0.755 0.00419 0.752-0.0167 0.749-0.0378 0.745-0.0591 0.741-0.0806 0.736-0.102 0.731-0.124 0.725-0.146 0.718-0.167 0.71-0.189 0.702-0.211 0.693-0.232 0.683-0.253 0.673-0.273 0.661-0.294 0.649-0.313 0.636-0.332 0.622-0.35 0.607-0.368 0.592-0.384 0.576-0.399 0.559-0.414 0.542-0.427 0.524-0.439 0.505-0.449 0.486-0.458 0.466-0.466 0.447-0.472 0.426-0.476 0.406-0.479 0.386-0.48 0.365-0.479 0.345-0.477 0.324-0.474 0.302-0.471 0.279-0.467 0.255-0.464 0.229-0.46 0.203-0.455 0.175-0.451 0.145-0.446 0.115-0.44 0.083-0.434 0.0498-0.428 0.0151-0.421-0.0209-0.413-0.0585-0.406-0.0976-0.397-0.138-0.388-0.181-0.379-0.226-0.368-0.272-0.356-0.321-0.342-0.371-0.326-0.423-0.307-0.476-0.286-0.53-0.261-0.583-0.231-0.634-0.198-0.682-0.162-0.723-0.123-0.755-0.0868-0.776-0.0558-0.787-0.0321-0.79-0.0154-0.788-0.00461-0.784 0.00153-0.778 0.00393-0.772 0.00328-0.765 7.49e-5 -0.758-0.00532-0.75-0.0126-0.742-0.0217-0.734-0.0312-0.725-0.0413-0.716-0.0518-0.707-0.0628-0.697-0.0744-0.686-0.0864-0.675-0.099-0.663-0.112-0.65-0.126-0.637-0.14-0.623-0.154-0.608-0.169-0.593-0.185-0.576-0.201-0.559-0.217-0.541-0.234-0.521-0.251-0.501-0.268-0.479-0.286-0.456-0.303-0.432-0.321-0.407" fill="#3c66ba" opacity=".8"/>
 </g>
</svg>
